<svg width="24" height="24" viewBox="0 0 24 24" fill="none" xmlns="http://www.w3.org/2000/svg">
<rect width="24" height="24" rx="12" fill="#939393"/>
<g clip-path="url(#clip0_3_233)">
<path d="M6.70708 8.12132C6.31655 7.7308 6.31655 7.09763 6.70708 6.70711C7.0976 6.31658 7.73077 6.31658 8.12129 6.70711L17.2968 15.8827C17.6874 16.2732 17.6874 16.9064 17.2968 17.2969C16.9063 17.6874 16.2732 17.6874 15.8826 17.2969L6.70708 8.12132Z" fill="white"/>
<path d="M15.8826 6.70711C16.2732 6.31659 16.9063 6.31659 17.2968 6.70711C17.6874 7.09763 17.6874 7.7308 17.2968 8.12132L8.12129 17.2969C7.73077 17.6874 7.0976 17.6874 6.70708 17.2969C6.31655 16.9064 6.31655 16.2732 6.70708 15.8827L15.8826 6.70711Z" fill="white"/>
</g>
<defs>
<clipPath id="clip0_3_233">
<rect width="12" height="12" fill="white" transform="translate(6 6)"/>
</clipPath>
</defs>
</svg>
