<svg width="24" height="24" viewBox="0 0 24 24" fill="none" xmlns="http://www.w3.org/2000/svg">
<path fill='currentColor' d="M10.9091 0C16.909 0 21.8181 4.90915 21.8181 10.9095C21.8181 13.5278 20.8909 15.9276 19.3636 17.7824L23.6728 22.0916C24.1091 22.5279 24.1091 23.1824 23.6728 23.6189C23.4545 23.8914 23.1819 24.0006 22.909 24.0006C22.6363 24.0006 22.3635 23.8916 22.1454 23.6733L17.8362 19.3641C15.9272 20.8915 13.5272 21.8187 10.9092 21.8187C4.90924 21.8187 8.39233e-05 16.9096 8.39233e-05 10.9096C-9.91821e-05 4.90925 4.90924 9.81826e-05 10.9092 9.81826e-05L10.9091 0ZM10.9091 19.6366C15.7093 19.6366 19.6366 15.7093 19.6366 10.9091C19.6364 6.10932 15.7091 2.182 10.9091 2.182C6.10885 2.182 2.18152 6.10932 2.18152 10.9095C2.18152 15.7093 6.10885 19.6366 10.9091 19.6366Z"/>
</svg>
